<svg width="29" height="28" viewBox="0 0 29 28" fill="none" xmlns="http://www.w3.org/2000/svg">
<rect width="29" height="28" fill="#9C9C9C"/>
<path d="M-1314 -2741C-1314 -2742.1 -1313.1 -2743 -1312 -2743H3709C3710.1 -2743 3711 -2742.1 3711 -2741V178C3711 179.105 3710.1 180 3709 180H-1312C-1313.1 180 -1314 179.104 -1314 178V-2741Z" fill="#646464"/>
<path d="M-1312 -2742H3709V-2744H-1312V-2742ZM3710 -2741V178H3712V-2741H3710ZM3709 179H-1312V181H3709V179ZM-1313 178V-2741H-1315V178H-1313ZM-1312 179C-1312.55 179 -1313 178.552 -1313 178H-1315C-1315 179.657 -1313.66 181 -1312 181V179ZM3710 178C3710 178.552 3709.55 179 3709 179V181C3710.66 181 3712 179.657 3712 178H3710ZM3709 -2742C3709.55 -2742 3710 -2741.55 3710 -2741H3712C3712 -2742.66 3710.66 -2744 3709 -2744V-2742ZM-1312 -2744C-1313.66 -2744 -1315 -2742.66 -1315 -2741H-1313C-1313 -2741.55 -1312.55 -2742 -1312 -2742V-2744Z" fill="white" fill-opacity="0.1"/>
<rect width="375" height="667" transform="translate(-36.3926 -602)" fill="#D21F32"/>
<rect x="-16.3926" y="-20" width="335" height="68" rx="5" fill="white"/>
<rect x="-16.3926" y="-20" width="335" height="68" rx="5" stroke="#D21F32" stroke-width="2"/>
<path fill-rule="evenodd" clip-rule="evenodd" d="M2.24463 13.999C2.24463 10.7202 3.54715 7.57563 5.86565 5.25713C8.18415 2.93863 11.3287 1.63611 14.6076 1.63611C17.8864 1.63611 21.031 2.93863 23.3495 5.25713C25.668 7.57563 26.9705 10.7202 26.9705 13.999C26.9705 17.2779 25.668 20.4225 23.3495 22.741C21.031 25.0595 17.8864 26.362 14.6076 26.362C11.3287 26.362 8.18415 25.0595 5.86565 22.741C3.54715 20.4225 2.24463 17.2779 2.24463 13.999ZM14.6076 3.40944C11.799 3.40944 9.10552 4.52513 7.11958 6.51106C5.13365 8.497 4.01796 11.1905 4.01796 13.999C4.01796 16.8076 5.13365 19.5011 7.11958 21.487C9.10552 23.473 11.799 24.5886 14.6076 24.5886C17.4161 24.5886 20.1096 23.473 22.0955 21.487C24.0815 19.5011 25.1972 16.8076 25.1972 13.999C25.1972 11.1905 24.0815 8.497 22.0955 6.51106C20.1096 4.52513 17.4161 3.40944 14.6076 3.40944ZM19.0017 9.60678C19.1767 9.7818 19.275 10.0192 19.275 10.2666C19.275 10.5141 19.1767 10.7515 19.0017 10.9265L15.9273 13.999L19.0017 17.0716C19.177 17.2468 19.2754 17.4845 19.2754 17.7324C19.2754 17.9802 19.177 18.2179 19.0017 18.3932C18.8264 18.5684 18.5887 18.6669 18.3409 18.6669C18.093 18.6669 17.8554 18.5684 17.6801 18.3932L14.6076 15.3188L11.535 18.3932C11.4483 18.48 11.3452 18.5488 11.2319 18.5958C11.1185 18.6427 10.997 18.6669 10.8742 18.6669C10.7515 18.6669 10.63 18.6427 10.5166 18.5958C10.4032 18.5488 10.3002 18.48 10.2134 18.3932C10.1267 18.3064 10.0578 18.2034 10.0109 18.09C9.96389 17.9766 9.93972 17.8551 9.93972 17.7324C9.93972 17.6097 9.96389 17.4881 10.0109 17.3748C10.0578 17.2614 10.1267 17.1584 10.2134 17.0716L13.2878 13.999L10.2134 10.9265C10.0382 10.7513 9.93972 10.5136 9.93972 10.2657C9.93972 10.0179 10.0382 9.78016 10.2134 9.60491C10.3887 9.42965 10.6264 9.3312 10.8742 9.3312C11.1221 9.3312 11.3598 9.42965 11.535 9.60491L14.6076 12.6793L17.6801 9.60491C17.7668 9.51799 17.8698 9.44903 17.9832 9.40198C18.0966 9.35493 18.2181 9.33071 18.3409 9.33071C18.4637 9.33071 18.5852 9.35493 18.6986 9.40198C18.812 9.44903 18.915 9.51986 19.0017 9.60678Z" fill="#BE1E2D"/>
</svg>
